<svg width="25" height="30" viewBox="0 0 25 30" fill="none" xmlns="http://www.w3.org/2000/svg">
<path d="M6.83112 10.415C7.43163 10.415 7.91843 9.92917 7.91843 9.32987C7.91843 8.73058 7.43163 8.24475 6.83112 8.24475C6.23062 8.24475 5.74381 8.73058 5.74381 9.32987C5.74381 9.92917 6.23062 10.415 6.83112 10.415Z" fill="white"/>
<path d="M6.83112 23.4363C7.43163 23.4363 7.91843 22.9505 7.91843 22.3512C7.91843 21.7519 7.43163 21.2661 6.83112 21.2661C6.23062 21.2661 5.74381 21.7519 5.74381 22.3512C5.74381 22.9505 6.23062 23.4363 6.83112 23.4363Z" fill="white"/>
<path d="M12.2677 25.6066C12.8682 25.6066 13.355 25.1208 13.355 24.5215C13.355 23.9222 12.8682 23.4364 12.2677 23.4364C11.6672 23.4364 11.1804 23.9222 11.1804 24.5215C11.1804 25.1208 11.6672 25.6066 12.2677 25.6066Z" fill="white"/>
<path d="M3.56924 16.8599C4.16975 16.8599 4.65655 16.3741 4.65655 15.7748C4.65655 15.1755 4.16975 14.6897 3.56924 14.6897C2.96874 14.6897 2.48193 15.1755 2.48193 15.7748C2.48193 16.3741 2.96874 16.8599 3.56924 16.8599Z" fill="white"/>
<path d="M17.7042 10.415C18.3047 10.415 18.7915 9.92917 18.7915 9.32987C18.7915 8.73058 18.3047 8.24475 17.7042 8.24475C17.1037 8.24475 16.6169 8.73058 16.6169 9.32987C16.6169 9.92917 17.1037 10.415 17.7042 10.415Z" fill="white"/>
<path d="M20.9661 16.8599C21.5666 16.8599 22.0534 16.3741 22.0534 15.7748C22.0534 15.1755 21.5666 14.6897 20.9661 14.6897C20.3656 14.6897 19.8788 15.1755 19.8788 15.7748C19.8788 16.3741 20.3656 16.8599 20.9661 16.8599Z" fill="white"/>
<path d="M17.7042 23.4363C18.3047 23.4363 18.7915 22.9505 18.7915 22.3512C18.7915 21.7519 18.3047 21.2661 17.7042 21.2661C17.1037 21.2661 16.6169 21.7519 16.6169 22.3512C16.6169 22.9505 17.1037 23.4363 17.7042 23.4363Z" fill="white"/>
<path fill-rule="evenodd" clip-rule="evenodd" d="M17.4215 27.0581C17.8298 26.8622 18.3226 26.9298 18.6385 27.2542L20.4644 29.1292C20.7319 29.4039 21.1734 29.4039 21.441 29.1292C21.6987 28.8645 21.6987 28.4427 21.441 28.1781L20.0843 26.7849C19.6584 26.3475 19.7228 25.6356 20.182 25.2333C22.8238 22.9195 24.5 19.4688 24.5 15.6145C24.5 8.6477 19.0235 3 12.2678 3C5.51218 3 0.0356445 8.6477 0.0356445 15.6145C0.0356445 19.4288 1.67729 22.8477 4.27166 25.1608C4.72438 25.5644 4.78489 26.2708 4.36173 26.7054L2.92757 28.1781C2.66985 28.4427 2.66984 28.8645 2.92756 29.1291C3.19513 29.4039 3.63664 29.4039 3.90421 29.1292L5.78384 27.199C6.10245 26.8718 6.60039 26.8061 7.01021 27.0076C8.60297 27.7907 10.3858 28.229 12.2678 28.229C14.109 28.229 15.8553 27.8095 17.4215 27.0581ZM12.2678 26.8274C18.2728 26.8274 23.1409 21.8072 23.1409 15.6145C23.1409 9.42179 18.2728 4.40161 12.2678 4.40161C6.2628 4.40161 1.39478 9.42179 1.39478 15.6145C1.39478 21.8072 6.2628 26.8274 12.2678 26.8274ZM11.5083 15.298V11.5001V7.94092C11.5083 7.50942 11.8581 7.15963 12.2895 7.15963C12.721 7.15963 13.0708 7.50942 13.0708 7.94092V11.5001V15.298V15.8406V16.1226C13.0708 16.5661 12.7113 16.9257 12.2677 16.9257C11.8483 16.9257 11.5083 16.5857 11.5083 16.1663V15.8406V15.298Z" fill="white"/>
<path d="M11.5 0V4H13V0H11.5Z" fill="white"/>
<path d="M19.25 0H5.25C4.83579 0 4.5 0.335786 4.5 0.75C4.5 1.16421 4.83579 1.5 5.25 1.5H19.25C19.6642 1.5 20 1.16421 20 0.75C20 0.335786 19.6642 0 19.25 0Z" fill="white"/>
</svg>
