<svg width="30" height="31" viewBox="0 0 30 31" fill="none" xmlns="http://www.w3.org/2000/svg">
<path d="M21.28 18.47C19.57 18.47 18.18 19.95 18.18 21.77C18.18 23.6 19.58 25.07 21.28 25.07C22.98 25.07 24.36 23.6 24.36 21.77C24.36 19.95 22.98 18.47 21.28 18.47ZM21.28 23.49C20.39 23.49 19.68 22.72 19.68 21.78C19.68 20.83 20.39 20.06 21.28 20.06C22.16 20.06 22.88 20.83 22.88 21.78C22.88 22.72 22.16 23.48 21.28 23.48V23.49ZM12.1 -0.00999451C10.35 -0.00999451 8.92 1.51001 8.92 3.39001C8.92 5.28001 10.35 6.80001 12.11 6.80001C13.87 6.80001 15.29 5.28001 15.29 3.40001C15.29 1.51001 13.87 -0.00999451 12.11 -0.00999451H12.1ZM12.1 5.47001C11.04 5.47001 10.17 4.54001 10.17 3.40001C10.17 2.25001 11.04 1.33001 12.11 1.33001C13.18 1.33001 14.04 2.25001 14.04 3.40001C14.04 4.54001 13.18 5.47001 12.11 5.47001H12.1ZM8.73 17.61C7.43 17.61 6.39 18.73 6.39 20.11C6.39 21.5 7.43 22.61 8.73 22.61C10.03 22.61 11.07 21.5 11.07 20.11C11.07 18.73 10.02 17.61 8.73 17.61ZM19 9.76001C19 9.76001 22.04 8.92001 25.18 11.26C26.08 12.02 26.94 12.59 26.33 13.38C25.99 13.72 25.69 14.04 24.61 12.85C23.8344 12.2189 22.9314 11.7634 21.9629 11.5148C20.9944 11.2663 19.9836 11.2305 19 11.41C17.87 11.65 17.04 11.96 15.44 13.56C14.6035 14.4243 13.5886 15.0958 12.466 15.5276C11.3434 15.9593 10.1401 16.141 8.94 16.06C6.42 15.82 5.1 14.79 3.7 13.51C3.4 13.09 3.4 12.64 3.58 12.38C3.75 12.12 4.41 11.86 4.78 12.25C5.15 12.65 6.88 14.22 8.6 14.32C10.32 14.42 12.04 14.53 14.34 12.36C16.64 10.18 17.8 10.02 19 9.76001Z" fill="black"/>
<path d="M29.15 26.82V8.16C29.15 7.58 28.77 7.51 28.62 7.5H28.12C27.62 7.5 27.58 8.06 27.58 8.24V26.84C27.5748 27.1935 27.4996 27.5426 27.3589 27.8669C27.2181 28.1913 27.0146 28.4846 26.76 28.73C25.95 29.43 25.14 29.33 25.14 29.33C25.14 29.33 4.96 29.33 4.48 29.3C4.15776 29.2559 3.84854 29.144 3.57274 28.9716C3.29693 28.7992 3.06083 28.5703 2.88 28.3C2.31 27.5 2.42 26.45 2.42 26.45V8.3C2.42 7.47 1.75 7.5 1.75 7.5H1.45C0.909998 7.5 0.849998 8.08 0.849998 8.27V26.81C0.849998 28.14 1.31 29.21 2.4 30.14C3.5 31.08 4.78 31 4.78 31H25.36C26.22 31 27.34 30.58 28.27 29.44C29.2 28.3 29.15 26.81 29.15 26.81V26.82Z" fill="black"/>
</svg>
