<svg xmlns="http://www.w3.org/2000/svg" fill="none" viewBox="0 0 74 57">
    <path fill="#FDC305" d="m73.22 26.47-8.46 9.37-1.22-1.98L71.7 23l1.53 3.47Z" />
    <path fill="#fff"
        d="m11 29.59 16.1 22.46L29.5 55l1.5 1c0 1 11 1.5 13.5-1l.4-1.22L61 24.98l-5.17-8.07-6.32-5.18L31.69 10l-16.1 8.07L11 29.59Z" />
    <path fill="#FDC305"
        d="M59.88 21.66a25.43 25.43 0 0 0-8.05-10.38 25.72 25.72 0 0 0-25.29-3.35 25.59 25.59 0 0 0-10.51 7.92 25.3 25.3 0 0 0-3.55 25.06 25.42 25.42 0 0 0 7.9 10.48 25.72 25.72 0 0 0 12.13 5.19c-.58-2.08-1.17-4.37-1.69-6.8 1.51.97 3.1 1.82 4.76 2.53 0 0 .12 2.14.28 4.53 1.79.03 3.58-.12 5.33-.46a2.1 2.1 0 0 1 0-.76c.3-1.85 1.1-5.2 1.25-7.35a15.11 15.11 0 0 0 2.9-3.68l-.06.44c-.55 4.23-1.7 8.74-2.4 9.99-.23.41-.5.8-.83 1.14A25.73 25.73 0 0 0 59.01 43a25.27 25.27 0 0 0 .87-21.34Zm-1.47 3.76c-.44.43-1.35.71-1.5-.58-.15-1.29-.19-2.19-.19-2.19s-1.93-3.4-2.65-3.44c-.72-.04-5.83 3.44-7.18 4.96-1.17 1.28-1.4 1.19-1.4 3.44 0 1.7.22 8.1.1 13l-8.15 2.16c-2.56.73-5.17 1.3-7.8 1.7l-1-5.78h-.14l-2.57-13.06s-3.8-1.43-5.2-1.82a3.79 3.79 0 0 0-4.01.63 5.03 5.03 0 0 0-1.73 3.82c.21.46.37.94.48 1.43.05.48-1.2.43-2 .43s-.92-1.43-.29-3.1c.5-1.3 1.1-2.53 1.82-3.71a11.78 11.78 0 0 1 2.07-2.87s.14-.34 1.25-.24c1.11.1 7.28.43 7.28.43l.05-2.25c6.7-.92 13.47-1.37 20.24-1.33v1.81a22.67 22.67 0 0 1 8.14-1.98.92.92 0 0 1 .77.39c.34.42 2.41 2.97 2.65 3.34.67.95 1.29 1.95 1.83 2.97a6.17 6.17 0 0 1-.87 1.83Z" />
    <path fill="#F06351"
        d="m56.46 19.35 1 1.28c.68.95 1.29 1.95 1.83 2.97a6.17 6.17 0 0 1-.86 1.77c-.44.43-1.35.71-1.5-.58a53.13 53.13 0 0 1-.2-2.14s-1.94-3.4-2.66-3.44c-.72-.04-5.83 3.44-7.18 4.96-1.17 1.28-1.4 1.19-1.4 3.44 0 1.49.17 6.6.13 11.14 1.81.2 4.47.7 5.27 1.87 0 0-.29-7.13 7.81-3.4 0 0 .28-9.7 11.46-7.22a43.67 43.67 0 0 0-13.7-10.65ZM45.93 17.05c.04-5.5-.43-10.99-1.4-16.4 0 0-.15-1.29-.87-.24-.6 1.26-1 2.6-1.2 3.97a71.46 71.46 0 0 0-12.82.34c-.82-2.73-2.22-3.97-2.89-3.64-.67.32-.75 3.25-.75 3.25l-.33 14.05c6.71-.92 13.49-1.37 20.26-1.33Z" />
    <path fill="#E55645"
        d="M45.35 44.6c.13-1.07.2-2.48.24-4.03l-8.15 2.15a64.44 64.44 0 0 1-7.8 1.75l1.11 4.96c0 .11 0 .22.07.33a32.4 32.4 0 0 0 4.76 2.53 42.49 42.49 0 0 0 6.88-4.1v.06a15.12 15.12 0 0 0 2.9-3.66Z" />
    <path fill="#000"
        d="M32 13.94c-.05-.1 1 .68 1.41.92.41.23.61.41.61.58 0 .17-.26.34-.62.34s-.92-.12-1-.26c-.08-.14.6 0 .94 0h.3A8.05 8.05 0 0 1 32 13.94ZM39.5 14.05s-1 1.27-1.09 1.33c-.09.06-.17.34.2.29.4-.06.81-.16 1.21-.28.11-.06.07-.2-.12-.18-.19.02-.68.05-1 .11l.85-1.26s.03-.12-.05 0ZM36.36 20.11c.47-.2.85-.55 1.1-.99.27-.65 0-.9-.45-1-.6-.1-1.23.02-1.75.35-.39.36-.34.72 0 .99.34.26.7.48 1.1.65Z" />
    <path fill="#F06351"
        d="M36 21.36c-.11.23-.27.43-.46.6-.28.22-.63.36-1 .37A2.2 2.2 0 0 1 33 21.9a2 2 0 0 1-.53-.45 1 1 0 0 0-.36-.25s.75 4.08 2.57 4.73c1.82.66 2.16-.75 2.21-1.13a5.55 5.55 0 0 0-.82-3.21c0-.3-.02-.1-.07-.23Z" />
    <path fill="#000"
        d="M34.3 22.5a3.52 3.52 0 0 1-2.35-1.43.15.15 0 0 1 0-.2.14.14 0 0 1 .16-.02l.04.03a3.2 3.2 0 0 0 2.11 1.3 2.12 2.12 0 0 0 1.64-1l.14-.18.1.21s.38.76 1 .8c.62.04 1.06-.42 1.63-1.28a.14.14 0 0 1 .2-.04.14.14 0 0 1 .04.2c-.67.97-1.3 1.43-1.89 1.4a1.56 1.56 0 0 1-1.12-.73 2.25 2.25 0 0 1-1.7.93Z" />
    <path fill="#FDC305"
        d="M36.26 35.84a3.73 3.73 0 0 0 3.75-3.72 3.73 3.73 0 0 0-3.75-3.72 3.73 3.73 0 0 0-3.75 3.72 3.73 3.73 0 0 0 3.75 3.72Z" />
    <path fill="#111"
        d="m41.23 29.1-3.13 1.3 1.15-5.59-7.5 9.69 3.13-1.3-1.15 5.59 7.5-9.7Zm-7.39 3.8L38 27.53l-.8 3.97 2-.81-4.2 5.37.81-3.97-1.97.8ZM32.44 31.44c.62 0 1.12-.5 1.12-1.11 0-.61-.5-1.11-1.12-1.11-.62 0-1.12.5-1.12 1.1 0 .62.5 1.12 1.12 1.12ZM38.96 35.47a.79.79 0 1 0 0-1.57.79.79 0 0 0-.79.78c0 .44.36.79.8.79ZM39.92 33.31c.2 0 .35-.15.35-.34 0-.2-.15-.35-.35-.35a.35.35 0 1 0 0 .7Z" />
    <path fill="#F06351"
        d="M45.88 18.84a57.22 57.22 0 0 0-5.09 5.17 31.79 31.79 0 0 1-5.3 4.86c-.23-.52-1.64-1.5-1.64-1.5s-3.14-2.14-5.2-3.82a31.78 31.78 0 0 1-3.14-2.97l-2-.11a22.62 22.62 0 0 0 12 8.77c.86-.14 3.28-1.86 5.1-3.26a57.44 57.44 0 0 0 6-5.86c.49-.58.88-1.26 1.13-1.98-1.14.38-1.86.7-1.86.7Z" />
    <path fill="#FDC305"
        d="m62.65 14.97 5.54-4.07-.78-3.71-5.4 4.77.64 3.01ZM59.92 46.83l6.13 3.15 3.01-2.32-6.69-2.73-2.45 1.9ZM1.95 3.78 5.02.44l9.29 8.93-1.22 2.26L1.95 3.78ZM7.38 14l-4.7-3.1-2.4 3.84 5.15 2.38L7.38 14ZM13.91 49.98 9.36 53.3l2.8 3.55 4.02-3.98-2.27-2.9Z" />
    <path fill="#F06351"
        d="M25.93 25.63s-3.8-1.43-5.2-1.82a3.79 3.79 0 0 0-4.01.63 5.03 5.03 0 0 0-1.73 3.82c.21.46.37.94.48 1.43.05.48-1.2.43-2 .43s-.92-1.43-.29-3.1c.5-1.3 1.1-2.53 1.82-3.71-5.45 2.81-15 9.32-15 9.32a46.2 46.2 0 0 1 8.19.24c5.25.52 5 4.63 5 4.63 1.85-.5 3.73-.87 5.63-1.1 2.12-.14 2.27 2.1 2.27 2.1l.53 3.83c.8-.86 1.7-1.65 2.65-2.34a6.1 6.1 0 0 1 4.38-1.29l-2.72-13.07Z" />
</svg>