<svg xmlns="http://www.w3.org/2000/svg" fill="none" viewBox="0 0 61 50"><path fill="#FDC305" d="M34.47 28.14c0 1.8-1.45 3.26-3.23 3.26A3.25 3.25 0 0128 28.14c0-1.8 1.45-3.26 3.23-3.26a3.25 3.25 0 013.24 3.26z"/><path fill="#FDC305" d="M51.58 18.97a21.96 21.96 0 00-37.77-5.09 22.35 22.35 0 003.75 31.14A21.97 21.97 0 0028 49.56c-.5-1.82-1-3.82-1.45-5.95 1.3.85 2.67 1.6 4.1 2.21 0 0 .1 1.88.24 3.97 1.54.03 3.08-.1 4.6-.4a1.87 1.87 0 010-.66c.24-1.63.93-4.56 1.07-6.44 1-.94 1.83-2.03 2.5-3.23l-.05.39c-.48 3.7-1.47 7.65-2.07 8.75-.2.36-.44.7-.72 1a22 22 0 0014.61-11.53 22.43 22.43 0 00.75-18.7zm-1.26 3.3c-.38.37-1.17.62-1.3-.5a28.38 28.38 0 01-.16-1.93s-1.66-2.98-2.28-3.01c-.62-.04-5.03 3.01-6.19 4.34-1 1.12-1.2 1.04-1.2 3.02 0 1.48.19 7.1.08 11.39l-7.02 1.88c-2.2.64-4.45 1.14-6.72 1.5l-.86-5.07h-.12l-2.21-11.44s-3.29-1.25-4.5-1.6a3.2 3.2 0 00-3.44.56 4.4 4.4 0 00-1.49 3.34c.18.4.32.83.42 1.26.04.42-1.04.38-1.73.38s-.79-1.26-.25-2.72c.43-1.13.95-2.22 1.57-3.25.47-.93 1.07-1.77 1.78-2.52 0 0 .12-.29 1.08-.2.96.08 6.27.37 6.27.37l.05-1.97c5.77-.8 11.6-1.2 17.43-1.17v1.6a19.14 19.14 0 017.01-1.74.78.78 0 01.67.33c.29.38 2.07 2.61 2.28 2.93.58.84 1.1 1.7 1.57 2.6a5.3 5.3 0 01-.74 1.6v.02z"/><path fill="#F06351" d="M48.64 16.95l.86 1.12c.58.83 1.1 1.7 1.57 2.6a5.44 5.44 0 01-.74 1.55c-.38.38-1.16.63-1.29-.5a43.6 43.6 0 01-.18-1.88s-1.66-2.98-2.28-3.01c-.62-.04-5.03 3.01-6.19 4.34-1 1.12-1.2 1.04-1.2 3.02 0 1.3.14 5.78.1 9.76 1.57.17 3.86.6 4.55 1.63 0 0-.25-6.24 6.73-2.97 0 0 .24-8.51 9.87-6.33a37.71 37.71 0 00-11.8-9.33zm-9.07-2.02c.03-4.81-.37-9.62-1.21-14.36 0 0-.13-1.13-.75-.2a12.3 12.3 0 00-1.03 3.47 60.54 60.54 0 00-11.05.3c-.7-2.4-1.91-3.48-2.49-3.2-.57.29-.64 2.85-.64 2.85l-.29 12.3a122.9 122.9 0 0117.46-1.16z"/><path fill="#E55645" d="M39.07 39.06c.1-.93.17-2.16.2-3.52l-7.02 1.88c-2.2.65-4.45 1.17-6.72 1.54l.96 4.34c0 .1 0 .2.06.29 1.3.85 2.67 1.6 4.1 2.22 2.08-1 4.07-2.21 5.93-3.6v.06c.98-.93 1.82-2.01 2.49-3.2v-.01z"/><path fill="#000" d="M27.57 12.21c-.05-.08.86.6 1.21.8.35.21.53.37.53.52 0 .14-.23.3-.54.3-.3 0-.8-.11-.86-.23-.07-.13.52 0 .81 0h.25c-.53-.4-1-.86-1.4-1.39zm6.46.09s-.87 1.12-.94 1.17c-.08.06-.15.3.16.26.36-.06.7-.14 1.05-.25.1-.05.06-.17-.1-.15a6.5 6.5 0 00-.86.1l.73-1.11s.03-.1-.04-.01v-.01zm-2.71 5.32c.4-.18.73-.48.94-.87.24-.57 0-.8-.38-.87a2.1 2.1 0 00-1.5.3c-.34.32-.3.63 0 .86.28.23.6.43.94.58z"/><path fill="#F06351" d="M31.01 18.71c-.1.2-.23.38-.4.52-.24.2-.54.32-.86.33-.47.05-.94-.09-1.32-.38-.18-.1-.33-.23-.46-.39a.86.86 0 00-.3-.22c-.01 0 .64 3.58 2.2 4.15 1.57.57 1.86-.66 1.9-1a4.84 4.84 0 00-.7-2.8c0-.27-.02-.1-.06-.2v-.01z"/><path fill="#000" d="M29.55 19.7a3 3 0 01-2.03-1.24.13.13 0 010-.17.12.12 0 01.09-.04c.03 0 .06.02.08.04a2.78 2.78 0 001.82 1.14 1.8 1.8 0 001.42-.87l.12-.17.08.2s.33.65.86.69c.54.03.92-.37 1.4-1.12a.12.12 0 01.08-.05.12.12 0 01.09.02.13.13 0 01.04.17c-.57.85-1.11 1.26-1.62 1.22a1.33 1.33 0 01-.97-.63 1.95 1.95 0 01-1.46.81z"/><path fill="#111" d="M35.52 25.5l-2.7 1.13 1-4.9-6.47 8.49 2.7-1.14-1 4.9 6.47-8.49v.01zm-6.37 3.32l3.58-4.7-.7 3.47 1.73-.7-3.61 4.7.7-3.48-1.7.7v.01z"/><path fill="#F06351" d="M39.52 16.5a49.73 49.73 0 00-4.38 4.53 27.56 27.56 0 01-4.58 4.26c-.19-.46-1.4-1.32-1.4-1.32s-2.7-1.87-4.48-3.34c-.96-.8-1.86-1.67-2.7-2.6l-1.73-.1a19.5 19.5 0 0010.34 7.68c.74-.12 2.82-1.62 4.38-2.85a49.89 49.89 0 005.17-5.13c.43-.52.76-1.1.98-1.74-.98.33-1.6.62-1.6.62v-.01zm-17.18 5.95s-3.29-1.25-4.5-1.6a3.2 3.2 0 00-3.44.56 4.4 4.4 0 00-1.49 3.34c.18.4.32.83.42 1.26.04.42-1.04.38-1.73.38s-.79-1.26-.25-2.72c.43-1.13.95-2.22 1.57-3.25C8.22 22.88 0 28.58 0 28.58c2.35-.14 4.71-.07 7.06.21 4.52.46 4.3 4.06 4.3 4.06 1.6-.44 3.21-.76 4.85-.96 1.83-.13 1.96 1.84 1.96 1.84l.45 3.35a15.8 15.8 0 012.29-2.05 5.19 5.19 0 013.77-1.13l-2.34-11.45z"/><path fill="#111" d="M28.92 26.57c0 .54-.44.98-.97.98a.97.97 0 01-.97-.98c0-.54.43-.98.97-.98.53 0 .97.44.97.98zm5.32 3.82c0 .38-.3.69-.68.69a.69.69 0 01-.69-.7.69.69 0 111.37 0zm.46-1.51a.31.31 0 11-.62 0 .31.31 0 01.62 0z"/></svg>